<?xml version="1.0" encoding="utf-8"?>
<!-- Generator: Adobe Illustrator 16.0.0, SVG Export Plug-In . SVG Version: 6.00 Build 0)  -->
<!DOCTYPE svg PUBLIC "-//W3C//DTD SVG 1.1//EN" "http://www.w3.org/Graphics/SVG/1.1/DTD/svg11.dtd">
<svg version="1.1" id="Layer_1" xmlns="http://www.w3.org/2000/svg" xmlns:xlink="http://www.w3.org/1999/xlink" x="0px" y="0px"
	 width="128px" height="128px" viewBox="0 0 128 128" enable-background="new 0 0 128 128" xml:space="preserve">
<g id="Background">
	<rect fill-opacity="0" width="128" height="128"/>
</g>
<g id="Background_1_">
	<path fill="#737370" d="M18.092,6h91.811C116.552,6,122,11.441,122,18.096v91.806c0,6.656-5.448,12.098-12.098,12.098H18.092
		C11.436,122,6,116.559,6,109.902V18.096C6,11.441,11.436,6,18.092,6"/>
	<g>
		<path fill="#E6E6E6" d="M37.25,35.325h-0.017c1.68-1.663,4.015-2.697,6.572-2.697c2.556,0,4.877,1.035,6.556,2.697
			c1.677,1.679,2.712,4,2.712,6.555c0,0.659-0.251,1.255-0.375,1.869l3.261,2.979h5.301c0.439-1.568,0.91-3.137,0.91-4.848
			c0-3.701-1.363-6.946-3.246-9.832L82.81,6.06H71.518L52.729,26.165c-2.667-1.537-5.615-2.649-8.923-2.649
			c-5.05,0-9.646,2.054-12.971,5.378h-0.031c-1.663,1.663-3.012,3.67-3.937,5.865l3.246,3.043h5.475
			C36.027,36.893,36.543,36.032,37.25,35.325z"/>
		<path fill="#E6E6E6" d="M121.815,76.809l-20.875,9.504c-0.659-0.957-1.396-1.867-2.211-2.683
			c-3.324-3.325-7.921-5.379-13.003-5.379c-5.05,0-9.644,2.054-12.969,5.379h-0.017l-0.046,0.062L57.434,64.936
			c1.882-2.07,3.059-4.674,3.827-7.466l-6.431-0.658l-2.132-2.322c-0.377,1.789-1.082,3.467-2.322,4.705h-0.015
			c-1.679,1.663-4,2.714-6.556,2.714c-2.557,0-4.877-1.034-6.555-2.697l-0.017-0.017c-1.662-1.676-2.697-3.998-2.697-6.555
			c0-1.489,0.425-2.855,1.052-4.078l-3.968,0.722l-4.752-3.764c-0.926,2.195-1.442,4.595-1.442,7.12
			c0,1.254,0.141,2.477,0.376,3.655L6.181,65.248v9.976l23.587-10.759c0.33,0.394,0.676,0.783,1.036,1.146l0.031,0.015
			c3.325,3.324,7.921,5.395,12.971,5.395c2.117,0,4.141-0.375,6.038-1.034l18.052,22.193c-0.345,1.427-0.533,2.917-0.533,4.437
			c0,5.067,2.054,9.661,5.379,12.986l0.017,0.017c3.325,3.308,7.919,5.378,12.969,5.378c5.082,0,9.679-2.07,13.003-5.378v-0.017
			c3.308-3.325,5.378-7.919,5.378-12.986c0-0.579-0.03-1.16-0.077-1.739l17.785-8.109V76.809z M92.3,103.188l-0.018-0.018
			c-1.662,1.68-3.982,2.729-6.556,2.729c-2.555,0-4.876-1.035-6.555-2.698l-0.015-0.031c-1.663-1.662-2.698-3.982-2.698-6.556
			c0-2.54,1.05-4.876,2.713-6.555l0,0c1.679-1.663,4-2.697,6.555-2.697c2.573,0,4.894,1.034,6.556,2.697
			c1.679,1.679,2.715,4.015,2.715,6.555C94.997,99.188,93.961,101.509,92.3,103.188z"/>
	</g>
</g>
</svg>
