<?xml version="1.0" encoding="utf-8"?>
<!-- Generator: Adobe Illustrator 16.0.0, SVG Export Plug-In . SVG Version: 6.00 Build 0)  -->
<!DOCTYPE svg PUBLIC "-//W3C//DTD SVG 1.1//EN" "http://www.w3.org/Graphics/SVG/1.1/DTD/svg11.dtd">
<svg version="1.1" id="Layer_1" xmlns="http://www.w3.org/2000/svg" xmlns:xlink="http://www.w3.org/1999/xlink" x="0px" y="0px"
	 width="128px" height="128px" viewBox="0 0 128 128" enable-background="new 0 0 128 128" xml:space="preserve">
<g id="Background">
	<rect fill-opacity="0" width="128" height="128"/>
</g>
<g id="Background_1_">
	<path fill="#737370" d="M18.092,6h91.811C116.552,6,122,11.441,122,18.096v91.806c0,6.656-5.448,12.098-12.098,12.098H18.092
		C11.436,122,6,116.559,6,109.902V18.096C6,11.441,11.436,6,18.092,6"/>
	<g>
		<path fill="#82D1F5" d="M37.252,35.266h-0.017c1.68-1.663,4.015-2.697,6.572-2.697c2.556,0,4.877,1.035,6.556,2.697
			c1.677,1.679,2.712,4.001,2.712,6.555c0,0.659-0.251,1.255-0.375,1.868l3.261,2.98h5.301c0.439-1.568,0.91-3.138,0.91-4.849
			c0-3.701-1.363-6.946-3.246-9.832L82.812,6H71.52L52.731,26.105c-2.667-1.537-5.615-2.649-8.923-2.649
			c-5.05,0-9.646,2.054-12.971,5.378h-0.031c-1.663,1.663-3.012,3.67-3.937,5.865l3.246,3.043h5.475
			C36.029,36.833,36.545,35.973,37.252,35.266z"/>
		<path fill="#82D1F5" d="M121.817,76.749l-20.875,9.504c-0.659-0.957-1.396-1.867-2.211-2.683
			c-3.324-3.325-7.921-5.379-13.003-5.379c-5.05,0-9.644,2.054-12.969,5.379h-0.017l-0.046,0.062L57.436,64.876
			c1.882-2.07,3.059-4.674,3.827-7.467l-6.431-0.657L52.7,54.431c-0.377,1.788-1.082,3.467-2.322,4.705h-0.015
			c-1.679,1.662-4,2.714-6.556,2.714c-2.557,0-4.877-1.034-6.555-2.697l-0.017-0.017c-1.662-1.677-2.697-3.998-2.697-6.556
			c0-1.489,0.425-2.854,1.052-4.077l-3.968,0.721L26.87,45.46c-0.926,2.195-1.442,4.596-1.442,7.12c0,1.254,0.141,2.478,0.376,3.655
			L6.183,65.188v9.976L29.77,64.405c0.33,0.394,0.676,0.783,1.036,1.146l0.031,0.015c3.325,3.324,7.921,5.395,12.971,5.395
			c2.117,0,4.141-0.375,6.038-1.034l18.052,22.193c-0.345,1.427-0.533,2.917-0.533,4.437c0,5.067,2.054,9.661,5.379,12.986
			l0.017,0.017c3.325,3.308,7.919,5.378,12.969,5.378c5.082,0,9.679-2.07,13.003-5.378v-0.017c3.308-3.325,5.378-7.919,5.378-12.986
			c0-0.579-0.03-1.16-0.077-1.739l17.785-8.109V76.749z M92.302,103.129l-0.018-0.018c-1.662,1.68-3.982,2.729-6.556,2.729
			c-2.555,0-4.876-1.035-6.555-2.698l-0.015-0.031c-1.663-1.662-2.698-3.982-2.698-6.556c0-2.54,1.05-4.876,2.713-6.555l0,0
			c1.679-1.663,4-2.697,6.555-2.697c2.573,0,4.894,1.034,6.556,2.697c1.679,1.679,2.715,4.015,2.715,6.555
			C94.999,99.129,93.963,101.449,92.302,103.129z"/>
	</g>
</g>
</svg>
